<?xml version="1.0" encoding="iso-8859-1"?>
<!-- Generator: Adobe Illustrator 19.0.0, SVG Export Plug-In . SVG Version: 6.00 Build 0)  -->
<svg version="1.1" id="Capa_1" xmlns="http://www.w3.org/2000/svg" xmlns:xlink="http://www.w3.org/1999/xlink" x="0px" y="0px"
	 viewBox="0 0 512 512" style="enable-background:new 0 0 512 512;" xml:space="preserve">
<circle style="fill:#FF9518;" cx="256" cy="267" r="245"/>
<path style="fill:#D9EAFC;" d="M341.328,261.597c-21.839-21.841-21.839-57.255,0-79.101c18.928-18.923,48.04-21.436,69.686-7.564V5
	c0-2.75-2.25-5-5-5H105.985c-2.75,0-5,2.25-5,5v451.721C143.215,491.267,197.184,512,256,512s112.785-20.733,155.015-55.279V269.163
	C389.368,283.037,360.256,280.523,341.328,261.597z"/>
<path style="fill:#C3DDF4;" d="M120.828,5c0-2.75,2.25-5,5-5h-19.843c-2.75,0-5,2.25-5,5v451.721
	c6.354,5.198,12.979,10.078,19.843,14.627V5z"/>
<path style="fill:#FFFFFF;" d="M368.018,57.591c0,2.75-2.25,5-5,5H148.982c-2.75,0-5-2.25-5-5V39.036c0-2.75,2.25-5,5-5h214.035
	c2.75,0,5,2.25,5,5v18.555H368.018z"/>
<path style="fill:#EEF6FF;" d="M163.825,57.591V39.036c0-2.75,2.25-5,5-5h-19.843c-2.75,0-5,2.25-5,5v18.555c0,2.75,2.25,5,5,5
	h19.843C166.075,62.591,163.825,60.341,163.825,57.591z"/>
<g>
	<path style="fill:#B7092B;" d="M360.172,112.008H213.84c-4.143,0-7.5-3.357-7.5-7.5s3.357-7.5,7.5-7.5h146.332
		c4.143,0,7.5,3.357,7.5,7.5S364.315,112.008,360.172,112.008z"/>
	<path style="fill:#B7092B;" d="M360.172,136.006H213.84c-4.143,0-7.5-3.357-7.5-7.5c0-4.143,3.357-7.5,7.5-7.5h146.332
		c4.143,0,7.5,3.357,7.5,7.5C367.672,132.648,364.315,136.006,360.172,136.006z"/>
</g>
<circle style="fill:#FFFFFF;" cx="169.83" cy="116.51" r="22.5"/>
<g>
	<path style="fill:#0F9390;" d="M341.328,182.496c6.621-6.619,14.492-11.219,22.851-13.825c-1.16-0.735-2.532-1.167-4.007-1.167
		H213.84c-4.143,0-7.5,3.357-7.5,7.5s3.357,7.5,7.5,7.5h127.48C341.323,182.502,341.325,182.498,341.328,182.496z"/>
	<path style="fill:#0F9390;" d="M334.018,191.502H213.84c-4.143,0-7.5,3.357-7.5,7.5s3.357,7.5,7.5,7.5h113.31
		C328.66,201.264,330.948,196.203,334.018,191.502z"/>
</g>
<circle style="fill:#2BB381;" cx="169.83" cy="187" r="22.5"/>
<path style="fill:#0F9390;" d="M169.826,217.003c-16.542,0-29.999-13.458-29.999-30s13.457-30,29.999-30
	c16.543,0,30.001,13.458,30.001,30S186.369,217.003,169.826,217.003z M169.826,172.003c-8.271,0-14.999,6.729-14.999,15
	s6.729,15,14.999,15c8.271,0,15.001-6.729,15.001-15S178.098,172.003,169.826,172.003z"/>
<g>
	<path style="fill:#1E99D6;" d="M327.261,238H213.84c-4.143,0-7.5,3.357-7.5,7.5s3.357,7.5,7.5,7.5h120.445
		C331.16,248.306,328.816,243.246,327.261,238z"/>
	<path style="fill:#1E99D6;" d="M341.75,261.998H213.84c-4.143,0-7.5,3.358-7.5,7.5c0,4.143,3.357,7.5,7.5,7.5h146.332
		c1.65,0,3.172-0.539,4.41-1.443C356.248,273.024,348.392,268.504,341.75,261.998z"/>
</g>
<circle style="fill:#69CDFF;" cx="169.83" cy="257.5" r="22.5"/>
<path style="fill:#1E99D6;" d="M169.826,287.499c-16.542,0-29.999-13.458-29.999-30s13.457-30,29.999-30
	c16.543,0,30.001,13.458,30.001,30S186.369,287.499,169.826,287.499z M169.826,242.499c-8.271,0-14.999,6.729-14.999,15
	c0,8.272,6.729,15,14.999,15c8.271,0,15.001-6.728,15.001-15C184.827,249.227,178.098,242.499,169.826,242.499z"/>
<g>
	<path style="fill:#DB722C;" d="M360.172,323.496H213.84c-4.143,0-7.5-3.357-7.5-7.5s3.357-7.5,7.5-7.5h146.332
		c4.143,0,7.5,3.357,7.5,7.5S364.315,323.496,360.172,323.496z"/>
	<path style="fill:#DB722C;" d="M360.172,347.494H213.84c-4.143,0-7.5-3.357-7.5-7.5s3.357-7.5,7.5-7.5h146.332
		c4.143,0,7.5,3.357,7.5,7.5S364.315,347.494,360.172,347.494z"/>
</g>
<circle style="fill:#FFAF10;" cx="169.83" cy="328" r="22.5"/>
<path style="fill:#DB722C;" d="M169.826,357.995c-16.542,0-29.999-13.458-29.999-30s13.457-30,29.999-30
	c16.543,0,30.001,13.458,30.001,30S186.369,357.995,169.826,357.995z M169.826,312.995c-8.271,0-14.999,6.729-14.999,15
	c0,8.272,6.729,15,14.999,15c8.271,0,15.001-6.728,15.001-15C184.827,319.724,178.098,312.995,169.826,312.995z"/>
<path style="fill:#FFFFFF;" d="M420.427,182.496c21.842,21.846,21.842,57.26,0,79.101c-21.841,21.843-57.255,21.843-79.099,0
	c-21.839-21.841-21.839-57.255,0-79.101C363.172,160.658,398.586,160.658,420.427,182.496z"/>
<path style="fill:#1A2B63;" d="M478.22,308.784l-47.512-47.511c19.607-24.871,17.958-61.141-4.979-84.081
	c-11.979-11.979-27.908-18.575-44.851-18.575c-16.943,0-32.872,6.597-44.854,18.576c-24.728,24.735-24.728,64.977,0.001,89.707
	c11.98,11.98,27.91,18.578,44.854,18.578c14.416,0,28.087-4.791,39.226-13.595l47.51,47.508c1.464,1.464,3.384,2.196,5.303,2.196
	s3.839-0.732,5.304-2.197C481.149,316.462,481.149,311.713,478.22,308.784z M346.632,256.294
	c-18.88-18.882-18.88-49.609-0.001-68.494c9.148-9.146,21.311-14.183,34.248-14.183c12.936,0,25.099,5.037,34.244,14.182
	c18.883,18.887,18.883,49.612,0,68.495c-9.146,9.147-21.308,14.185-34.244,14.185C367.942,270.478,355.779,265.441,346.632,256.294z
	"/>
<path style="fill:#69CDFF;" d="M407.816,195.105c14.879,14.881,14.879,39.005,0,53.881c-14.876,14.88-39,14.88-53.88,0
	c-14.876-14.876-14.876-39,0-53.881C368.816,180.23,392.94,180.23,407.816,195.105z"/>
<path style="fill:#3EB7FF;" d="M373.779,248.986c-14.876-14.876-14.876-39,0-53.881c4.893-4.891,10.786-8.162,17.02-9.837
	c-12.725-3.419-26.875-0.148-36.862,9.837c-14.876,14.881-14.876,39.005,0,53.881c9.987,9.987,24.138,13.261,36.862,9.84
	C384.565,257.151,378.672,253.879,373.779,248.986z"/>
<path style="fill:#B7092B;" d="M199.511,100.588c2.81-3.044,2.62-7.788-0.424-10.598c-3.045-2.81-7.788-2.62-10.598,0.424
	l-1.435,1.555c-4.88-3.436-10.82-5.462-17.229-5.462c-16.542,0-29.999,13.458-29.999,30s13.457,30,29.999,30
	c16.543,0,30.001-13.458,30.001-30c0-4.667-1.072-9.089-2.981-13.031L199.511,100.588z M176.697,103.188l-7.336,7.948l-7.517-6.36
	c-0.216-0.183-0.439-0.348-0.669-0.502c2.447-1.735,5.428-2.767,8.65-2.767C172.304,101.507,174.637,102.12,176.697,103.188z
	 M184.827,116.507c0,8.271-6.729,15-15.001,15c-7.548,0-13.795-5.61-14.831-12.877l10.16,8.597c1.406,1.189,3.128,1.774,4.842,1.774
	c2.024,0,4.039-0.816,5.514-2.413l9.316-10.092C184.826,116.496,184.827,116.503,184.827,116.507z"/>
<g>
	<path style="fill:#445EA0;" d="M363.098,389.496H151.914c-4.143,0-7.5-3.357-7.5-7.5s3.357-7.5,7.5-7.5h211.184
		c4.143,0,7.5,3.357,7.5,7.5S367.24,389.496,363.098,389.496z"/>
	<path style="fill:#445EA0;" d="M363.098,413.494H151.914c-4.143,0-7.5-3.357-7.5-7.5s3.357-7.5,7.5-7.5h211.184
		c4.143,0,7.5,3.357,7.5,7.5C370.598,410.137,367.24,413.494,363.098,413.494z"/>
	<path style="fill:#445EA0;" d="M363.098,438.496H151.914c-4.143,0-7.5-3.357-7.5-7.5s3.357-7.5,7.5-7.5h211.184
		c4.143,0,7.5,3.357,7.5,7.5S367.24,438.496,363.098,438.496z"/>
	<path style="fill:#445EA0;" d="M363.098,462.494H151.914c-4.143,0-7.5-3.357-7.5-7.5s3.357-7.5,7.5-7.5h211.184
		c4.143,0,7.5,3.357,7.5,7.5C370.598,459.137,367.24,462.494,363.098,462.494z"/>
</g>
<g>
</g>
<g>
</g>
<g>
</g>
<g>
</g>
<g>
</g>
<g>
</g>
<g>
</g>
<g>
</g>
<g>
</g>
<g>
</g>
<g>
</g>
<g>
</g>
<g>
</g>
<g>
</g>
<g>
</g>
</svg>
